Coordinates
version=1
nRows=16
nColumns=36
inDegrees=yes

Units are S.I. units (second, meters, Newtons, ...)
If the header above contains a line with 'inDegrees', this indicates whether rotational values are in degrees (yes) or radians (no).

endheader
time	pelvis_tilt	pelvis_list	pelvis_rotation	pelvis_tx	pelvis_ty	pelvis_tz	hip_flexion_r	hip_adduction_r	hip_rotation_r	knee_angle_r	knee_angle_r_beta	ankle_angle_r	subtalar_angle_r	mtp_angle_r	hip_flexion_l	hip_adduction_l	hip_rotation_l	knee_angle_l	knee_angle_l_beta	ankle_angle_l	subtalar_angle_l	mtp_angle_l	lumbar_extension	lumbar_bending	lumbar_rotation	arm_flex_r	arm_add_r	arm_rot_r	elbow_flex_r	pro_sup_r	arm_flex_l	arm_add_l	arm_rot_l	elbow_flex_l	pro_sup_l
      1.19000000	    -23.48296240	     -3.39688573	      0.47664183	     -0.35925287	      0.70899464	     -0.59553267	     81.36335057	     -1.30783037	     -0.77479626	     86.10758812	      1.50286092	     26.49160282	     -9.47871176	     -7.43126995	     80.11237252	     -3.50231623	      9.47019440	     92.31001209	      1.61111364	     22.25539698	    -12.89748562	     -7.43126995	    -35.29580299	     -1.76354869	     -4.61237379	     43.27701716	     -8.91747623	      8.39913093	    111.25864256	    104.85945424	     63.02843737	     -9.79468464	     25.49242266	     93.32164892	    110.78794154
      1.20000000	    -23.98689011	     -3.32825937	      0.27544171	     -0.35679393	      0.70996800	     -0.59563486	     81.74409490	     -1.54011552	     -1.03164944	     86.03568598	      1.50160599	     26.23867419	     -8.96615947	     -7.43188984	     80.63034405	     -3.82005031	      9.24855826	     92.40098633	      1.61270144	     21.52814741	    -12.52689837	     -7.43188984	    -35.64442402	     -1.69280779	     -4.45905494	     43.59593079	     -7.53252543	      7.85812271	    111.12377813	    104.90010944	     62.96336362	     -8.77850287	     24.64136000	     92.80849087	    110.74849030
      1.21000000	    -24.35897490	     -3.29216492	      0.06111606	     -0.35431048	      0.71144126	     -0.59544520	     81.93577134	     -1.69344997	     -1.36926753	     85.93027550	      1.49976623	     25.96502958	     -8.52995399	     -7.43246696	     81.02642683	     -4.20451654	      9.02815723	     92.48558747	      1.61417801	     20.74722837	    -12.21247765	     -7.43246696	    -36.07844601	     -1.62466045	     -4.28117455	     43.75813334	     -6.39600028	      7.49884412	    111.15812700	    104.96625959	     62.79114400	     -8.01616510	     23.93502393	     92.52620167	    110.74528688
      1.22000000	    -24.65661357	     -3.25790842	     -0.16747534	     -0.35195032	      0.71324491	     -0.59509006	     82.02693351	     -1.79045642	     -1.73150107	     85.77788330	      1.49710649	     25.63014959	     -8.17938815	     -7.43299257	     81.33820146	     -4.58669756	      8.83929218	     92.54987846	      1.61530010	     19.93385479	    -11.95808417	     -7.43299257	    -36.52700292	     -1.56768200	     -4.11052057	     43.81444170	     -5.41663439	      7.25885772	    111.28311834	    105.03988808	     62.58430189	     -7.50947891	     23.39940380	     92.32300782	    110.76062901
      1.23000000	    -24.89355541	     -3.26984056	     -0.38669652	     -0.34975346	      0.71527221	     -0.59480510	     82.03185928	     -1.84509339	     -2.08632498	     85.56169455	      1.49333328	     25.18708150	     -7.88417172	     -7.43362963	     81.59785378	     -4.93424994	      8.75613171	     92.60032555	      1.61618057	     18.97862378	    -11.72195633	     -7.43362963	    -36.97490006	     -1.44253470	     -3.88386679	     43.75388249	     -4.59875793	      6.97164190	    111.44759516	    105.13040037	     62.30225862	     -7.15423731	     22.98331428	     92.08739895	    110.79968158
      1.24000000	    -25.03902619	     -3.32278745	     -0.60770971	     -0.34770623	      0.71753495	     -0.59454040	     81.93926519	     -1.84859398	     -2.38864689	     85.30063464	      1.48877693	     24.69784629	     -7.63179188	     -7.43420481	     81.74837899	     -5.26202913	      8.75737918	     92.62175507	      1.61655459	     18.11136220	    -11.52333500	     -7.43420481	    -37.44145702	     -1.27100393	     -3.63863378	     43.56843343	     -3.88987018	      6.71275623	    111.64838280	    105.21391451	     62.01427508	     -6.96912118	     22.66013729	     91.58251678	    110.81196124
      1.25000000	    -25.09838898	     -3.38189017	     -0.82405665	     -0.34564399	      0.72010542	     -0.59429351	     81.75479936	     -1.85956775	     -2.67027414	     85.03447326	      1.48413154	     24.10967828	     -7.35007568	     -7.43481814	     81.75938930	     -5.55629955	      8.75426700	     92.58482532	      1.61591004	     17.24401615	    -11.42369001	     -7.43481814	    -37.87192419	     -1.14313834	     -3.39674063	     43.13189816	     -3.29784352	      6.43083540	    111.68328756	    105.27798846	     61.65476127	     -6.79359822	     22.35477870	     90.70657875	    110.79408959
      1.26000000	    -25.13504441	     -3.36727391	     -1.02167414	     -0.34334940	      0.72295379	     -0.59405411	     81.53266129	     -1.91944679	     -2.86387637	     84.76739564	      1.47947015	     23.84877015	     -7.18643968	     -7.43496135	     81.60582245	     -5.78463901	      8.69747174	     92.44900935	      1.61353960	     16.95342714	    -11.37383988	     -7.43496135	    -38.22293599	     -1.12765300	     -3.40345440	     42.40327268	     -2.82586074	      6.47311997	    111.71237958	    105.29380921	     61.06684701	     -7.02029600	     22.25731609	     90.02805063	    110.74077270
      1.27000000	    -25.12958157	     -3.38800124	     -1.27390844	     -0.34125873	      0.72622350	     -0.59353250	     81.25533341	     -1.81577606	     -2.94846484	     84.40771952	      1.47319262	     22.82831325	     -6.62023904	     -7.43547328	     81.41679347	     -6.09153693	      8.68997030	     92.25038012	      1.61007287	     15.84363388	    -11.28887056	     -7.43547328	    -38.49584278	     -1.13829066	     -3.29141035	     41.62535227	     -1.98458515	      5.89471498	    111.19359155	    105.25242603	     60.61259310	     -6.95551293	     21.70477067	     88.19381024	    110.56603789
      1.28000000	    -25.22101022	     -3.30351308	     -1.42395790	     -0.33900037	      0.72950952	     -0.59324885	     81.09222786	     -1.90412284	     -3.01978847	     84.07315028	      1.46735328	     21.94501798	     -6.47659859	     -7.43735333	     81.23217842	     -6.20248022	      8.53241632	     91.91540902	      1.60422652	     14.33815072	    -12.25361128	     -7.43735333	    -38.64642976	     -1.24254906	     -2.97808864	     40.31579267	     -1.74829725	      5.33649353	    111.20382483	    105.27023998	     60.07643715	     -6.66815740	     21.52147491	     86.30441255	    110.47811372
      1.29000000	    -25.27611342	     -3.27659999	     -1.59601137	     -0.33665045	      0.73307471	     -0.59275859	     80.80680307	     -1.93224747	     -3.18136248	     83.65119743	      1.45998882	     21.38188173	     -6.13819882	     -7.43787957	     80.98581841	     -6.45529658	      8.36581393	     91.57524317	      1.59828951	     13.74059834	    -12.15947902	     -7.43787957	    -38.79564798	     -1.22964323	     -3.01787159	     39.14639506	     -1.27693186	      5.20980211	    110.69711385	    105.21658669	     59.20847476	     -6.88467411	     20.87930824	     85.06590827	    110.34239739
      1.30000000	    -25.44205847	     -3.29542069	     -1.74642349	     -0.33438419	      0.73642449	     -0.59232961	     80.61155663	     -1.95825931	     -3.41786267	     83.21184622	      1.45232069	     20.75810145	     -5.85316734	     -7.43851402	     80.89590751	     -6.71023557	      8.24481199	     91.22531021	      1.59218202	     12.92372831	    -12.18082930	     -7.43851402	    -38.73810064	     -1.21509776	     -3.01327656	     37.80249398	     -1.10101725	      5.13218427	    110.14180017	    105.12988291	     58.10907056	     -6.86369934	     20.02079349	     83.89307781	    110.22442659
      1.31000000	    -25.68341405	     -3.35041451	     -1.86203258	     -0.33216324	      0.73964269	     -0.59200401	     80.44104768	     -1.99849343	     -3.73537261	     82.72895741	      1.44389269	     20.19045266	     -5.78019495	     -7.43944022	     80.87934869	     -6.89971135	      8.20425013	     90.85773847	      1.58576669	     11.97459117	    -12.45099952	     -7.43944022	    -38.55144835	     -1.11841529	     -2.98858238	     36.40793387	     -1.13564667	      5.22517881	    109.57903819	    105.01026141	     56.80049099	     -6.86006941	     19.07538357	     83.09329001	    110.19557220
      1.32000000	    -25.74563356	     -3.31822009	     -1.93670487	     -0.32994074	      0.74313354	     -0.59168337	     80.05477965	     -2.09138295	     -3.99435464	     82.24998803	      1.43553310	     20.04846651	     -5.70292370	     -7.43956093	     80.59750669	     -7.06531855	      8.05355377	     90.44639027	      1.57858731	     11.77203352	    -12.40288618	     -7.43956093	    -38.62468638	     -1.15047245	     -3.01096292	     35.00589487	     -1.33721155	      5.29670607	    109.31413026	    104.98708238	     55.69829626	     -7.24796411	     18.89396340	     82.73859919	    110.16774241
      1.33000000	    -26.17225964	     -3.43457589	     -2.10023661	     -0.32805001	      0.74613821	     -0.59128254	     79.99995944	     -2.02764706	     -4.33421720	     81.59170777	      1.42404394	     19.30542570	     -5.57733510	     -7.44056908	     80.76373008	     -7.34662814	      8.09369735	     89.96842465	      1.57024523	     10.53517359	    -12.55928561	     -7.44056908	    -38.08317954	     -0.99308193	     -3.08288526	     33.72253356	     -1.44527513	      5.63081216	    108.21318656	    104.83910019	     54.01529386	     -7.22436370	     17.51648927	     82.31033703	    110.14630738
      1.34000000	    -26.18998396	     -3.37754426	     -2.15256120	     -0.32589885	      0.74966194	     -0.59099613	     79.53979699	     -2.15788103	     -4.55092974	     81.08728144	      1.41524004	     19.19339110	     -5.49088916	     -7.44066472	     80.36178520	     -7.46301190	      7.97605446	     89.50403486	      1.56214010	     10.37153898	    -12.48329782	     -7.44066472	    -38.06866426	     -1.04198467	     -3.07755840	     32.25724286	     -1.84355395	      5.65870448	    107.88300305	    104.81122043	     52.80292158	     -7.61068371	     17.44295584	     82.14830073	    110.13952615
